<svg xmlns="http://www.w3.org/2000/svg" version="1.0" width="142px" height="31.000000pt" viewBox="0 0 1429.000000 517.000000" preserveAspectRatio="xMidYMid meet">
                <style type="text/css">
                        .st0{opacity:0.3;}
                        .st6{fill:#0061F2;}
                        .st7{fill:#455A64;}
                    </style>
                <g transform="translate(0.000000,517.000000) scale(0.100000,-0.100000)" fill="#000000" stroke="none">
                <path d="M6104 4289 c-189 -17 -481 -112 -639 -209 -39 -23 -86 -44 -105 -46 -19 -2 -442 -4 -940 -5 -498 0 -927 -4 -955 -8 -41 -6 -69 -21 -160 -88 l-110 -81 -960 -6 c-528 -4 -973 -7 -990 -9 -27 -2 -30 -5 -30 -37 l0 -35 73 -7 c51 -4 5128 -19 6140 -18 45 0 52 -3 52 -20 0 -17 -7 -20 -42 -20 -1207 0 -2267 -4 -2348 -7 l-105 -6 -95 -138 -94 -138 -961 2 c-768 2 -965 -1 -977 -11 -9 -7 -37 -44 -62 -82 l-46 -69 -843 0 c-463 0 -901 -3 -972 -7 -120 -6 -132 -8 -141 -28 -23 -50 -13 -54 134 -59 75 -2 1592 -4 3370 -5 l3232 -2 0 22 c0 13 2 272 5 576 l6 552 -673 -1 c-370 -1 -714 -5 -764 -10z"></path>
                <path d="M5546 3083 c-1 -1 -155 -4 -342 -5 -186 -1 -387 -4 -446 -6 l-107 -3 -41 -107 c-23 -59 -44 -110 -48 -114 -7 -7 -447 -15 -1322 -23 -300 -3 -559 -8 -577 -11 -29 -5 -32 -11 -47 -69 -9 -35 -16 -76 -16 -90 l0 -25 -912 -1 c-502 0 -940 -3 -973 -6 -85 -8 -100 -39 -35 -77 l35 -21 2486 -3 2485 -3 11 86 c8 67 19 104 51 168 54 107 117 189 180 235 65 47 67 68 10 77 -38 6 -386 4 -392 -2z"></path>
                <path class="st6" d="M10970 2535 c-127 -28 -261 -91 -382 -178 l-78 -56 0 99 0 100 -155 0 -155 0 0 -910 0 -910 155 0 155 0 0 683 0 682 78 52 c176 119 324 168 487 161 214 -10 305 -101 334 -333 7 -56 11 -308 11 -667 l0 -578 150 0 150 0 0 654 c0 705 -2 741 -54 873 -86 220 -254 330 -516 339 -78 3 -136 -1 -180 -11z"></path>
                <path class="st6" d="M13090 2535 c-127 -28 -261 -91 -382 -178 l-78 -56 0 99 0 100 -155 0 -155 0 0 -910 0 -910 155 0 155 0 0 683 0 682 78 52 c176 119 324 168 487 161 214 -10 305 -101 334 -333 7 -56 11 -308 11 -667 l0 -578 150 0 150 0 0 654 c0 705 -2 741 -54 873 -86 220 -254 330 -516 339 -78 3 -136 -1 -180 -11z"></path>
                <path class="st6" d="M8555 2525 c-105 -14 -244 -40 -297 -55 l-38 -11 0 -156 c0 -120 3 -154 13 -150 64 24 248 79 311 92 270 55 531 35 643 -51 45 -34 91 -98 102 -143 5 -20 11 -65 13 -101 l3 -65 -217 -17 c-384 -30 -540 -60 -698 -134 -100 -47 -172 -103 -225 -175 -59 -80 -84 -152 -97 -278 -9 -89 -8 -118 5 -185 62 -303 317 -486 645 -462 180 14 333 68 484 172 51 35 96 64 101 64 4 0 7 -43 7 -95 l0 -95 151 0 151 0 -5 683 c-3 592 -6 690 -20 745 -62 236 -234 374 -517 417 -115 18 -388 18 -515 0z m753 -1142 l2 -252 -72 -49 c-203 -137 -370 -185 -559 -162 -185 22 -277 99 -297 250 -34 243 118 384 464 430 107 14 399 39 434 37 l25 -2 3 -252z"></path>
                <path d="M4573 2458 c-6 -7 -11 -47 -12 -88 -1 -41 -4 -94 -7 -117 l-6 -43 -567 -2 c-311 -1 -740 -2 -953 -1 l-388 2 0 -27 c1 -15 7 -54 15 -87 8 -33 15 -62 15 -65 0 -3 -408 -5 -907 -5 -500 0 -934 -4 -966 -8 -57 -8 -57 -9 -57 -42 0 -31 4 -35 37 -46 29 -9 630 -13 2582 -16 1399 -3 2554 -2 2567 1 13 4 28 15 34 26 9 16 6 24 -16 42 -145 124 -252 292 -261 413 l-6 63 -61 4 c-33 2 -280 5 -547 7 -395 2 -487 0 -496 -11z"></path>
                <path d="M5425 1860 c-650 -4 -740 -7 -739 -20 1 -8 21 -61 45 -118 36 -87 41 -105 29 -112 -9 -6 -400 -10 -957 -10 -519 0 -943 -4 -943 -9 0 -4 25 -42 55 -85 l55 -76 -223 0 c-461 -1 -1437 -10 -1556 -15 -84 -3 -127 -9 -133 -17 -14 -22 -4 -52 22 -65 19 -9 546 -13 2170 -18 1180 -3 2197 -7 2260 -8 151 -3 2014 14 2018 18 4 4 1 449 -3 490 -2 17 -3 36 -4 43 -1 13 -468 13 -2096 2z"></path>
                <path d="M5083 1242 c-8 -19 16 -41 154 -148 68 -53 123 -98 123 -101 0 -3 -415 -3 -923 1 -507 4 -930 4 -940 1 -37 -15 -11 -36 131 -107 132 -66 144 -73 112 -75 -19 -1 -370 -4 -780 -5 -808 -3 -794 -3 -787 -56 3 -25 8 -27 63 -33 32 -4 1211 -7 2619 -8 1408 -1 2583 -3 2612 -6 35 -3 55 0 62 9 8 9 11 94 9 274 l-3 261 -1224 3 c-991 2 -1224 1 -1228 -10z"></path>
                </g>
</svg>
